<svg width="32" height="32" viewBox="0 0 32 32" fill="none" xmlns="http://www.w3.org/2000/svg">
<path d="M21.3943 5.22958L17.088 9.53586L19.2 11.6936L18.1577 12.7999L17.0788 11.721L16 10.6147L13.8423 12.7999L12.8 11.6936L14.9577 9.53586L11.6937 6.29929L8.45713 9.53586L10.6148 11.6936L9.53598 12.7999L6.30856 9.53586L11.264 4.57129H17.728L14.9303 7.37815L16 8.45701L19.8857 4.57129L21.4126 3.04443H10.6331L4.1417 9.53586L5.22056 10.6147L8.45713 13.8513L9.53598 14.9301L10.6148 13.8513L11.6937 12.7999L12.8 13.8421L11.7211 14.921L10.6148 15.9999L12.8 18.1576L11.6937 19.1999L9.53598 17.0421L6.29941 20.3061L7.37827 21.385L8.45713 22.4639L9.53598 23.5427L11.6937 21.385L12.8 22.4639L9.53598 25.6913L4.57141 20.7359V14.2719L7.37827 17.0787L8.45713 15.9999L4.57141 12.1141L3.04456 10.5873V21.3576L9.53598 27.849L10.6148 26.7701L14.9211 22.4639L12.8 20.3061L13.8423 19.1999L14.9211 20.2787L16 21.3576L18.1577 19.1999L19.2 20.3061L17.0423 22.4639L20.2697 25.6913L22.4274 23.5336L23.5063 22.4547L21.3486 20.297L22.464 19.1999L25.7006 22.4364L20.736 27.4284H14.272L17.0788 24.6216L16 23.5427L12.1143 27.4284L10.5874 28.9553H21.3668L27.8583 22.4639L26.7794 21.385L23.5428 18.1484L22.464 17.0696L21.3851 18.1484L20.3063 19.1999L19.2 18.1576L20.2788 17.0787L21.3577 15.9999L19.2 13.8421L20.3063 12.7999L22.464 14.9576L25.6914 11.7301L24.6126 10.6513L23.5337 9.57243L22.464 8.45701L20.3063 10.6147L19.2 9.53586L22.464 6.30843L27.4286 11.2639V17.7279L24.6217 14.921L23.5428 15.9999L27.4286 19.8856L28.9554 21.4124V10.6421L22.464 4.15072L21.3851 5.22043L21.3943 5.22958ZM10.6148 9.53586L11.6937 8.45701L12.8 9.53586L11.7211 10.6147L10.6148 9.53586ZM9.53598 21.4216L8.45713 20.3061L9.53598 19.1999L10.6148 20.2787L9.53598 21.4216ZM21.4217 22.5004L20.3428 23.5793L19.2 22.4639L20.2788 21.385L21.4217 22.5004ZM16 12.7999L17.0788 13.8787L16 14.921L14.9211 13.8421L16 12.7999ZM12.8 15.9999L13.8788 14.921L14.9577 15.9999L13.8788 17.0787L12.8 15.9999ZM16 19.1999L14.9211 18.121L16 17.0421L17.0788 18.121L16 19.1999ZM19.2 15.9999L18.1211 17.0787L17.0788 15.9999L18.1577 14.921L19.2 15.9999ZM22.4366 10.6147L23.5154 11.6936L22.464 12.7999L21.3851 11.721L22.4366 10.6147Z" fill="#C49F51"/>
<path d="M22.6286 0H9.37143L0 9.37143V22.6286L9.37143 32H22.6286L32 22.6286V9.37143L22.6286 0ZM30.4731 21.9977L21.9977 30.4731H10.0023L1.52686 21.9977V10.0023L10.0023 1.52686H21.9977L30.4731 10.0023V21.9977Z" fill="#C49F51"/>
</svg>
