<?xml version="1.0" encoding="UTF-8"?>
<svg id="Layer_1" data-name="Layer 1" xmlns="http://www.w3.org/2000/svg" viewBox="0 0 861.99 147.3">
  <defs>
    <style>
      .cls-1 {
        fill: #141414;
        stroke-width: 0px;
      }
    </style>
  </defs>
  <g>
    <path class="cls-1" d="m208.29,23.2h13.14v74.65c0,8.26,3.25,9.75,7.32,9.75,1.22,0,2.3-.14,2.3-.14v11.65s-2.03.27-4.34.27c-7.45,0-18.43-2.03-18.43-19.24V23.2Z"/>
    <path class="cls-1" d="m276.98,48.67c20.46,0,36.99,15.04,36.99,35.77s-16.53,36.04-36.99,36.04-36.99-15.17-36.99-36.04,16.53-35.77,36.99-35.77Zm0,60.42c13.01,0,23.57-10.3,23.57-24.66s-10.57-24.39-23.57-24.39-23.57,10.16-23.57,24.39,10.7,24.66,23.57,24.66Z"/>
    <path class="cls-1" d="m354.47,135.92c11.92,0,21.68-5.28,21.68-19.24v-5.01c0-2.17.14-4.33.14-4.33h-.27c-4.06,6.77-10.43,10.7-20.32,10.7-19.1,0-30.62-15.31-30.62-35.09s10.97-34.28,29.94-34.28c16.53,0,21.54,10.16,21.54,10.16h.27s-.14-.95-.14-2.17v-6.37h12.6v65.71c0,22.62-17.21,31.3-34.55,31.3-8.26,0-16.8-2.3-23.44-5.69l4.33-10.3s8.54,4.61,18.83,4.61Zm21.95-52.84c0-17.88-8.67-23.03-19.37-23.03-11.92,0-18.7,8.67-18.7,22.63s7.59,23.98,19.92,23.98c9.48,0,18.15-5.69,18.15-23.57Z"/>
    <path class="cls-1" d="m441.86,48.67c20.46,0,36.99,15.04,36.99,35.77s-16.53,36.04-36.99,36.04-36.99-15.17-36.99-36.04,16.53-35.77,36.99-35.77Zm0,60.42c13.01,0,23.57-10.3,23.57-24.66s-10.57-24.39-23.57-24.39-23.57,10.16-23.57,24.39,10.7,24.66,23.57,24.66Z"/>
    <path class="cls-1" d="m493.61,22.65h17.07v15.31h-17.07v-15.31Zm0,27.1h17.21v69.1h-17.21V49.75Z"/>
    <path class="cls-1" d="m529.79,49.75h15.72v5.01c0,2.57-.27,4.74-.27,4.74h.27s5.96-11.38,22.22-11.38c18.7,0,30.62,14.77,30.62,36.17s-13.41,36.17-31.57,36.17c-13.68,0-19.78-9.48-19.78-9.48h-.27s.27,2.44.27,5.96v28.99h-17.21V49.75Zm33.87,56.23c9.48,0,17.34-7.72,17.34-21.41s-7.04-21.68-17.21-21.68c-8.94,0-17.34,6.5-17.34,21.81,0,10.7,5.83,21.27,17.21,21.27Z"/>
    <path class="cls-1" d="m614.6,98.25s7.59,7.59,18.83,7.59c4.88,0,9.08-2.17,9.08-6.23,0-10.3-33.6-8.94-33.6-31.16,0-12.87,11.52-20.32,26.42-20.32s23.17,7.86,23.17,7.86l-6.37,12.74s-6.37-5.96-16.94-5.96c-4.47,0-8.81,1.9-8.81,6.23,0,9.75,33.6,8.54,33.6,30.75,0,11.52-10.03,20.73-26.42,20.73-17.21,0-26.83-10.16-26.83-10.16l7.86-12.06Z"/>
    <path class="cls-1" d="m672.86,49.75h17.21v40.92c0,8.4,2.17,14.09,10.7,14.09,12.46,0,19.37-10.97,19.37-23.3v-31.7h17.21v69.1h-16.53v-7.86c0-2.71.27-4.88.27-4.88h-.27c-3.39,7.18-12.19,14.36-23.98,14.36-14.77,0-23.98-7.45-23.98-26.28v-44.44Z"/>
    <path class="cls-1" d="m756.31,49.75h16.53v7.99c0,2.57-.27,4.74-.27,4.74h.27c3.39-6.77,11.65-14.36,22.49-14.36s17.34,4.88,20.19,14.23h.27c3.79-7.45,12.74-14.23,23.57-14.23,14.36,0,22.62,8.13,22.62,26.28v44.44h-17.21v-41.19c0-7.86-1.49-13.82-9.48-13.82-8.81,0-14.63,7.04-16.67,15.72-.68,2.71-.81,5.69-.81,8.94v30.35h-17.21v-41.19c0-7.45-1.22-13.82-9.35-13.82-8.94,0-14.77,7.04-16.94,15.85-.68,2.57-.81,5.69-.81,8.81v30.35h-17.21V49.75Z"/>
  </g>
  <polygon class="cls-1" points="106.83 48.93 79.04 0 0 142.15 55.59 142.15 106.83 48.93"/>
  <polygon class="cls-1" points="119.28 40.82 84.83 103.94 105.79 142.15 175.16 142.15 119.28 40.82"/>
  <polygon class="cls-1" points="81.06 111.75 63.53 142.15 63.53 142.15 98.21 142.15 81.06 111.75"/>
</svg>